<?xml version="1.0" encoding="UTF-8" standalone="no"?>
<!-- Created with Inkscape (http://www.inkscape.org/) -->

<svg
   xmlns:dc="http://purl.org/dc/elements/1.1/"
   xmlns:cc="http://creativecommons.org/ns#"
   xmlns:rdf="http://www.w3.org/1999/02/22-rdf-syntax-ns#"
   xmlns:svg="http://www.w3.org/2000/svg"
   xmlns="http://www.w3.org/2000/svg"
   xmlns:sodipodi="http://sodipodi.sourceforge.net/DTD/sodipodi-0.dtd"
   xmlns:inkscape="http://www.inkscape.org/namespaces/inkscape"
   width="210mm"
   height="297mm"
   viewBox="0 0 744.09448819 1052.3622047"
   id="svg2"
   version="1.1"
   inkscape:version="0.91 r13725"
   sodipodi:docname="drawing.svg">
  <defs
     id="defs4" />
  <sodipodi:namedview
     id="base"
     pagecolor="#ffffff"
     bordercolor="#666666"
     borderopacity="1.0"
     inkscape:pageopacity="0.0"
     inkscape:pageshadow="2"
     inkscape:zoom="0.49497475"
     inkscape:cx="-72.857147"
     inkscape:cy="232.16438"
     inkscape:document-units="px"
     inkscape:current-layer="layer1"
     showgrid="false"
     inkscape:window-width="1440"
     inkscape:window-height="851"
     inkscape:window-x="0"
     inkscape:window-y="1"
     inkscape:window-maximized="1" />
  <metadata
     id="metadata7">
    <rdf:RDF>
      <cc:Work
         rdf:about="">
        <dc:format>image/svg+xml</dc:format>
        <dc:type
           rdf:resource="http://purl.org/dc/dcmitype/StillImage" />
      </cc:Work>
    </rdf:RDF>
  </metadata>
  <g
     inkscape:label="Layer 1"
     inkscape:groupmode="layer"
     id="layer1">
    <circle
       style="opacity:1;fill:#00ccff;fill-opacity:1;stroke:none;stroke-width:55;stroke-linecap:round;stroke-miterlimit:4;stroke-dasharray:none;stroke-opacity:1"
       id="path3384"
       cx="148.1001"
       cy="157.79428"
       r="134.63953"
       inkscape:export-xdpi="24.059999"
       inkscape:export-ydpi="24.059999"
       inkscape:export-filename="/Users/bherbert/Documents/Development/TimeBuckets/app/src/main/res/mipmap-hdpi/icon.png" />
    <circle
       inkscape:export-ydpi="32.09"
       inkscape:export-xdpi="32.09"
       r="134.63953"
       cy="457.79428"
       cx="148.1001"
       id="circle3345"
       style="opacity:1;fill:#00ccff;fill-opacity:1;stroke:none;stroke-width:55;stroke-linecap:round;stroke-miterlimit:4;stroke-dasharray:none;stroke-opacity:1"
       inkscape:export-filename="/Users/bherbert/Documents/Development/TimeBuckets/app/src/main/res/mipmap-xhdpi/icon.png" />
    <circle
       style="opacity:1;fill:#00ccff;fill-opacity:1;stroke:none;stroke-width:55;stroke-linecap:round;stroke-miterlimit:4;stroke-dasharray:none;stroke-opacity:1"
       id="circle3353"
       cx="148.1001"
       cy="757.79431"
       r="134.63953"
       inkscape:export-xdpi="48.130001"
       inkscape:export-ydpi="48.130001"
       inkscape:export-filename="/Users/bherbert/Documents/Development/TimeBuckets/app/src/main/res/mipmap-xxhdpi/icon.png" />
    <circle
       inkscape:export-ydpi="64.169998"
       inkscape:export-xdpi="64.169998"
       r="134.63953"
       cy="1057.7943"
       cx="148.1001"
       id="circle3361"
       style="opacity:1;fill:#00ccff;fill-opacity:1;stroke:none;stroke-width:55;stroke-linecap:round;stroke-miterlimit:4;stroke-dasharray:none;stroke-opacity:1"
       inkscape:export-filename="/Users/bherbert/Documents/Development/TimeBuckets/app/src/main/res/mipmap-xxxhdpi/icon.png" />
    <circle
       style="opacity:1;fill:#00ccff;fill-opacity:1;stroke:none;stroke-width:55;stroke-linecap:round;stroke-miterlimit:4;stroke-dasharray:none;stroke-opacity:1"
       id="circle3369"
       cx="148.1001"
       cy="1357.7943"
       r="134.63953"
       inkscape:export-xdpi="171.1236"
       inkscape:export-ydpi="171.1236" />
    <g
       id="g3377"
       style="fill:#ffffff">
      <g
         inkscape:export-ydpi="24.52"
         inkscape:export-xdpi="24.52"
         inkscape:export-filename="/Users/bherbert/Documents/Development/TimeBuckets/app/src/main/res/mipmap-hdpi/icon.png"
         transform="matrix(0.49866498,0,0,0.49866498,6.7482558,11.608289)"
         id="g3341"
         style="fill:#ffffff">
        <path
           style="opacity:1;fill:#ffffff;fill-opacity:1;stroke:none;stroke-width:20;stroke-miterlimit:4;stroke-dasharray:none;stroke-opacity:1"
           d="m 503.30392,63.769837 c -0.19301,0.0065 -0.3841,0.02679 -0.57617,0.05664 l -0.62695,0.09765 -0.63282,0.01758 c -147.3419,4.04859 -294.59122,3.7883 -441.806645,0.0059 l -0.66601,-0.01758 -0.66016,-0.10547 c -0.17086,-0.0274 -0.33259,-0.04097 -0.49414,-0.04297 l -0.002,0 c -1.40371,-0.0117 -3.31044,0.74242 -5.57813,3.98633 -2.2685,3.24509 -4.18415,8.65673 -4.35937,14.93555 -0.17523,6.27881 1.42195,12.01176 3.61328,15.71875 2.16174,3.656953 4.39162,4.896073 5.83789,5.091803 18.91979,0.8523 37.7951,1.59988 56.625005,2.24218 0.0267,9.1e-4 0.0534,10e-4 0.0801,0.002 28.28463,0.96436 56.46735,1.69068 84.55273,2.17773 9.34614,0.16205 18.68147,0.29932 28.00586,0.4082 0.0156,1.9e-4 0.0313,-1.8e-4 0.0469,0 9.32692,0.10883 18.64194,0.19062 27.94726,0.2461 9.332,0.0557 18.65246,0.0841 27.96289,0.0859 39.04712,0.008 77.89914,-0.47017 116.57422,-1.41601 19.48943,-0.47659 38.93093,-1.07986 58.32813,-1.80078 6.27082,-0.23307 12.54339,-0.46199 18.80468,-0.72071 9.14348,-0.37779 18.27712,-0.78225 27.40039,-1.21484 10e-4,-1.5e-4 0.003,1.5e-4 0.004,0 0.17873,-0.0232 0.36958,-0.0653 0.57031,-0.12305 0.009,-0.003 0.0179,-0.003 0.0274,-0.006 0,0 0.002,0 0.002,0 0.16761,-0.0496 0.34674,-0.12461 0.52734,-0.20118 0.0677,-0.0287 0.13381,-0.0537 0.20508,-0.0879 1.38838,-0.65663 3.09488,-2.13437 4.72461,-5.021483 2.22904,-3.9488 3.75289,-10.00096 3.36523,-16.48047 -0.38764,-6.47951 -2.60709,-11.78827 -4.96874,-14.70703 -2.06647,-2.55393 -3.48292,-3.1723 -4.83399,-3.12695 z m -5.05078,60.017573 c -141.763,6.52082 -285.9061,6.45222 -432.712895,0.0937 l 52.582035,382.95118 c 109.49434,32.92326 218.67744,31.18387 328.42969,-0.0899 l 51.70117,-382.95508 z m -219.45117,24.8125 c 90.63838,0 164.33008,73.6917 164.33008,164.33008 0,90.63838 -73.6917,164.33008 -164.33008,164.33008 -90.63838,0 -164.33008,-73.6917 -164.33008,-164.33008 0,-90.63838 73.6917,-164.33008 164.33008,-164.33008 z m 0,20 c -79.82958,0 -144.33008,64.5005 -144.33008,144.33008 0,79.82958 64.5005,144.33008 144.33008,144.33008 79.82958,0 144.33008,-64.5005 144.33008,-144.33008 0,-79.82958 -64.5005,-144.33008 -144.33008,-144.33008 z m -6.10156,6.94922 15.15234,0 0,32.32617 -15.15234,0 0,-32.32617 z m 89.20117,31.27735 -86.32227,128.45312 -1.5,-2.53906 -0.11914,0.18359 -69.38476,-79.27539 70.49023,46.46094 86.83594,-93.2832 z m -217.78711,97.30859 32.32422,0 0,15.15234 -32.32422,0 0,-15.15234 z m 240,0 32.32422,0 0,15.15234 -32.32422,0 0,-15.15234 z m -111.41406,111.41406 15.15234,0 0,32.32617 -15.15234,0 0,-32.32617 z"
           id="path4192"
           inkscape:connector-curvature="0" />
        <rect
           style="opacity:0;fill:#ffffff;fill-opacity:1;stroke:none;stroke-width:20;stroke-linecap:round;stroke-miterlimit:4;stroke-dasharray:none;stroke-opacity:1"
           id="rect4165"
           width="530"
           height="530"
           x="15.189239"
           y="28.826229"
           inkscape:export-xdpi="32.603775"
           inkscape:export-ydpi="32.603775" />
      </g>
      <g
         id="g3347"
         transform="matrix(0.49866498,0,0,0.49866498,6.7482558,311.60829)"
         style="fill:#ffffff">
        <path
           inkscape:connector-curvature="0"
           id="path3349"
           d="m 503.30392,63.769837 c -0.19301,0.0065 -0.3841,0.02679 -0.57617,0.05664 l -0.62695,0.09765 -0.63282,0.01758 c -147.3419,4.04859 -294.59122,3.7883 -441.806645,0.0059 l -0.66601,-0.01758 -0.66016,-0.10547 c -0.17086,-0.0274 -0.33259,-0.04097 -0.49414,-0.04297 l -0.002,0 c -1.40371,-0.0117 -3.31044,0.74242 -5.57813,3.98633 -2.2685,3.24509 -4.18415,8.65673 -4.35937,14.93555 -0.17523,6.27881 1.42195,12.01176 3.61328,15.71875 2.16174,3.656953 4.39162,4.896073 5.83789,5.091803 18.91979,0.8523 37.7951,1.59988 56.625005,2.24218 0.0267,9.1e-4 0.0534,10e-4 0.0801,0.002 28.28463,0.96436 56.46735,1.69068 84.55273,2.17773 9.34614,0.16205 18.68147,0.29932 28.00586,0.4082 0.0156,1.9e-4 0.0313,-1.8e-4 0.0469,0 9.32692,0.10883 18.64194,0.19062 27.94726,0.2461 9.332,0.0557 18.65246,0.0841 27.96289,0.0859 39.04712,0.008 77.89914,-0.47017 116.57422,-1.41601 19.48943,-0.47659 38.93093,-1.07986 58.32813,-1.80078 6.27082,-0.23307 12.54339,-0.46199 18.80468,-0.72071 9.14348,-0.37779 18.27712,-0.78225 27.40039,-1.21484 10e-4,-1.5e-4 0.003,1.5e-4 0.004,0 0.17873,-0.0232 0.36958,-0.0653 0.57031,-0.12305 0.009,-0.003 0.0179,-0.003 0.0274,-0.006 0,0 0.002,0 0.002,0 0.16761,-0.0496 0.34674,-0.12461 0.52734,-0.20118 0.0677,-0.0287 0.13381,-0.0537 0.20508,-0.0879 1.38838,-0.65663 3.09488,-2.13437 4.72461,-5.021483 2.22904,-3.9488 3.75289,-10.00096 3.36523,-16.48047 -0.38764,-6.47951 -2.60709,-11.78827 -4.96874,-14.70703 -2.06647,-2.55393 -3.48292,-3.1723 -4.83399,-3.12695 z m -5.05078,60.017573 c -141.763,6.52082 -285.9061,6.45222 -432.712895,0.0937 l 52.582035,382.95118 c 109.49434,32.92326 218.67744,31.18387 328.42969,-0.0899 l 51.70117,-382.95508 z m -219.45117,24.8125 c 90.63838,0 164.33008,73.6917 164.33008,164.33008 0,90.63838 -73.6917,164.33008 -164.33008,164.33008 -90.63838,0 -164.33008,-73.6917 -164.33008,-164.33008 0,-90.63838 73.6917,-164.33008 164.33008,-164.33008 z m 0,20 c -79.82958,0 -144.33008,64.5005 -144.33008,144.33008 0,79.82958 64.5005,144.33008 144.33008,144.33008 79.82958,0 144.33008,-64.5005 144.33008,-144.33008 0,-79.82958 -64.5005,-144.33008 -144.33008,-144.33008 z m -6.10156,6.94922 15.15234,0 0,32.32617 -15.15234,0 0,-32.32617 z m 89.20117,31.27735 -86.32227,128.45312 -1.5,-2.53906 -0.11914,0.18359 -69.38476,-79.27539 70.49023,46.46094 86.83594,-93.2832 z m -217.78711,97.30859 32.32422,0 0,15.15234 -32.32422,0 0,-15.15234 z m 240,0 32.32422,0 0,15.15234 -32.32422,0 0,-15.15234 z m -111.41406,111.41406 15.15234,0 0,32.32617 -15.15234,0 0,-32.32617 z"
           style="opacity:1;fill:#ffffff;fill-opacity:1;stroke:none;stroke-width:20;stroke-miterlimit:4;stroke-dasharray:none;stroke-opacity:1" />
        <rect
           inkscape:export-ydpi="32.603775"
           inkscape:export-xdpi="32.603775"
           y="28.826229"
           x="15.189239"
           height="530"
           width="530"
           id="rect3351"
           style="opacity:0;fill:#ffffff;fill-opacity:1;stroke:none;stroke-width:20;stroke-linecap:round;stroke-miterlimit:4;stroke-dasharray:none;stroke-opacity:1" />
      </g>
      <g
         transform="matrix(0.49866498,0,0,0.49866498,6.7482558,611.60829)"
         id="g3355"
         style="fill:#ffffff">
        <path
           style="opacity:1;fill:#ffffff;fill-opacity:1;stroke:none;stroke-width:20;stroke-miterlimit:4;stroke-dasharray:none;stroke-opacity:1"
           d="m 503.30392,63.769837 c -0.19301,0.0065 -0.3841,0.02679 -0.57617,0.05664 l -0.62695,0.09765 -0.63282,0.01758 c -147.3419,4.04859 -294.59122,3.7883 -441.806645,0.0059 l -0.66601,-0.01758 -0.66016,-0.10547 c -0.17086,-0.0274 -0.33259,-0.04097 -0.49414,-0.04297 l -0.002,0 c -1.40371,-0.0117 -3.31044,0.74242 -5.57813,3.98633 -2.2685,3.24509 -4.18415,8.65673 -4.35937,14.93555 -0.17523,6.27881 1.42195,12.01176 3.61328,15.71875 2.16174,3.656953 4.39162,4.896073 5.83789,5.091803 18.91979,0.8523 37.7951,1.59988 56.625005,2.24218 0.0267,9.1e-4 0.0534,10e-4 0.0801,0.002 28.28463,0.96436 56.46735,1.69068 84.55273,2.17773 9.34614,0.16205 18.68147,0.29932 28.00586,0.4082 0.0156,1.9e-4 0.0313,-1.8e-4 0.0469,0 9.32692,0.10883 18.64194,0.19062 27.94726,0.2461 9.332,0.0557 18.65246,0.0841 27.96289,0.0859 39.04712,0.008 77.89914,-0.47017 116.57422,-1.41601 19.48943,-0.47659 38.93093,-1.07986 58.32813,-1.80078 6.27082,-0.23307 12.54339,-0.46199 18.80468,-0.72071 9.14348,-0.37779 18.27712,-0.78225 27.40039,-1.21484 10e-4,-1.5e-4 0.003,1.5e-4 0.004,0 0.17873,-0.0232 0.36958,-0.0653 0.57031,-0.12305 0.009,-0.003 0.0179,-0.003 0.0274,-0.006 0,0 0.002,0 0.002,0 0.16761,-0.0496 0.34674,-0.12461 0.52734,-0.20118 0.0677,-0.0287 0.13381,-0.0537 0.20508,-0.0879 1.38838,-0.65663 3.09488,-2.13437 4.72461,-5.021483 2.22904,-3.9488 3.75289,-10.00096 3.36523,-16.48047 -0.38764,-6.47951 -2.60709,-11.78827 -4.96874,-14.70703 -2.06647,-2.55393 -3.48292,-3.1723 -4.83399,-3.12695 z m -5.05078,60.017573 c -141.763,6.52082 -285.9061,6.45222 -432.712895,0.0937 l 52.582035,382.95118 c 109.49434,32.92326 218.67744,31.18387 328.42969,-0.0899 l 51.70117,-382.95508 z m -219.45117,24.8125 c 90.63838,0 164.33008,73.6917 164.33008,164.33008 0,90.63838 -73.6917,164.33008 -164.33008,164.33008 -90.63838,0 -164.33008,-73.6917 -164.33008,-164.33008 0,-90.63838 73.6917,-164.33008 164.33008,-164.33008 z m 0,20 c -79.82958,0 -144.33008,64.5005 -144.33008,144.33008 0,79.82958 64.5005,144.33008 144.33008,144.33008 79.82958,0 144.33008,-64.5005 144.33008,-144.33008 0,-79.82958 -64.5005,-144.33008 -144.33008,-144.33008 z m -6.10156,6.94922 15.15234,0 0,32.32617 -15.15234,0 0,-32.32617 z m 89.20117,31.27735 -86.32227,128.45312 -1.5,-2.53906 -0.11914,0.18359 -69.38476,-79.27539 70.49023,46.46094 86.83594,-93.2832 z m -217.78711,97.30859 32.32422,0 0,15.15234 -32.32422,0 0,-15.15234 z m 240,0 32.32422,0 0,15.15234 -32.32422,0 0,-15.15234 z m -111.41406,111.41406 15.15234,0 0,32.32617 -15.15234,0 0,-32.32617 z"
           id="path3357"
           inkscape:connector-curvature="0" />
        <rect
           style="opacity:0;fill:#ffffff;fill-opacity:1;stroke:none;stroke-width:20;stroke-linecap:round;stroke-miterlimit:4;stroke-dasharray:none;stroke-opacity:1"
           id="rect3359"
           width="530"
           height="530"
           x="15.189239"
           y="28.826229"
           inkscape:export-xdpi="32.603775"
           inkscape:export-ydpi="32.603775" />
      </g>
      <g
         inkscape:export-ydpi="65.379997"
         inkscape:export-xdpi="65.379997"
         inkscape:export-filename="/Users/bherbert/Documents/Development/TimeBuckets/app/src/main/res/mipmap-xxxhdpi/icon.png"
         id="g3363"
         transform="matrix(0.49866498,0,0,0.49866498,6.7482558,911.60829)"
         style="fill:#ffffff">
        <path
           inkscape:connector-curvature="0"
           id="path3365"
           d="m 503.30392,63.769837 c -0.19301,0.0065 -0.3841,0.02679 -0.57617,0.05664 l -0.62695,0.09765 -0.63282,0.01758 c -147.3419,4.04859 -294.59122,3.7883 -441.806645,0.0059 l -0.66601,-0.01758 -0.66016,-0.10547 c -0.17086,-0.0274 -0.33259,-0.04097 -0.49414,-0.04297 l -0.002,0 c -1.40371,-0.0117 -3.31044,0.74242 -5.57813,3.98633 -2.2685,3.24509 -4.18415,8.65673 -4.35937,14.93555 -0.17523,6.27881 1.42195,12.01176 3.61328,15.71875 2.16174,3.656953 4.39162,4.896073 5.83789,5.091803 18.91979,0.8523 37.7951,1.59988 56.625005,2.24218 0.0267,9.1e-4 0.0534,10e-4 0.0801,0.002 28.28463,0.96436 56.46735,1.69068 84.55273,2.17773 9.34614,0.16205 18.68147,0.29932 28.00586,0.4082 0.0156,1.9e-4 0.0313,-1.8e-4 0.0469,0 9.32692,0.10883 18.64194,0.19062 27.94726,0.2461 9.332,0.0557 18.65246,0.0841 27.96289,0.0859 39.04712,0.008 77.89914,-0.47017 116.57422,-1.41601 19.48943,-0.47659 38.93093,-1.07986 58.32813,-1.80078 6.27082,-0.23307 12.54339,-0.46199 18.80468,-0.72071 9.14348,-0.37779 18.27712,-0.78225 27.40039,-1.21484 10e-4,-1.5e-4 0.003,1.5e-4 0.004,0 0.17873,-0.0232 0.36958,-0.0653 0.57031,-0.12305 0.009,-0.003 0.0179,-0.003 0.0274,-0.006 0,0 0.002,0 0.002,0 0.16761,-0.0496 0.34674,-0.12461 0.52734,-0.20118 0.0677,-0.0287 0.13381,-0.0537 0.20508,-0.0879 1.38838,-0.65663 3.09488,-2.13437 4.72461,-5.021483 2.22904,-3.9488 3.75289,-10.00096 3.36523,-16.48047 -0.38764,-6.47951 -2.60709,-11.78827 -4.96874,-14.70703 -2.06647,-2.55393 -3.48292,-3.1723 -4.83399,-3.12695 z m -5.05078,60.017573 c -141.763,6.52082 -285.9061,6.45222 -432.712895,0.0937 l 52.582035,382.95118 c 109.49434,32.92326 218.67744,31.18387 328.42969,-0.0899 l 51.70117,-382.95508 z m -219.45117,24.8125 c 90.63838,0 164.33008,73.6917 164.33008,164.33008 0,90.63838 -73.6917,164.33008 -164.33008,164.33008 -90.63838,0 -164.33008,-73.6917 -164.33008,-164.33008 0,-90.63838 73.6917,-164.33008 164.33008,-164.33008 z m 0,20 c -79.82958,0 -144.33008,64.5005 -144.33008,144.33008 0,79.82958 64.5005,144.33008 144.33008,144.33008 79.82958,0 144.33008,-64.5005 144.33008,-144.33008 0,-79.82958 -64.5005,-144.33008 -144.33008,-144.33008 z m -6.10156,6.94922 15.15234,0 0,32.32617 -15.15234,0 0,-32.32617 z m 89.20117,31.27735 -86.32227,128.45312 -1.5,-2.53906 -0.11914,0.18359 -69.38476,-79.27539 70.49023,46.46094 86.83594,-93.2832 z m -217.78711,97.30859 32.32422,0 0,15.15234 -32.32422,0 0,-15.15234 z m 240,0 32.32422,0 0,15.15234 -32.32422,0 0,-15.15234 z m -111.41406,111.41406 15.15234,0 0,32.32617 -15.15234,0 0,-32.32617 z"
           style="opacity:1;fill:#ffffff;fill-opacity:1;stroke:none;stroke-width:20;stroke-miterlimit:4;stroke-dasharray:none;stroke-opacity:1" />
        <rect
           inkscape:export-ydpi="32.603775"
           inkscape:export-xdpi="32.603775"
           y="28.826229"
           x="15.189239"
           height="530"
           width="530"
           id="rect3367"
           style="opacity:0;fill:#ffffff;fill-opacity:1;stroke:none;stroke-width:20;stroke-linecap:round;stroke-miterlimit:4;stroke-dasharray:none;stroke-opacity:1" />
      </g>
      <g
         transform="matrix(0.49866498,0,0,0.49866498,6.7482558,1211.6083)"
         id="g3371"
         style="fill:#ffffff">
        <path
           style="opacity:1;fill:#ffffff;fill-opacity:1;stroke:none;stroke-width:20;stroke-miterlimit:4;stroke-dasharray:none;stroke-opacity:1"
           d="m 503.30392,63.769837 c -0.19301,0.0065 -0.3841,0.02679 -0.57617,0.05664 l -0.62695,0.09765 -0.63282,0.01758 c -147.3419,4.04859 -294.59122,3.7883 -441.806645,0.0059 l -0.66601,-0.01758 -0.66016,-0.10547 c -0.17086,-0.0274 -0.33259,-0.04097 -0.49414,-0.04297 l -0.002,0 c -1.40371,-0.0117 -3.31044,0.74242 -5.57813,3.98633 -2.2685,3.24509 -4.18415,8.65673 -4.35937,14.93555 -0.17523,6.27881 1.42195,12.01176 3.61328,15.71875 2.16174,3.656953 4.39162,4.896073 5.83789,5.091803 18.91979,0.8523 37.7951,1.59988 56.625005,2.24218 0.0267,9.1e-4 0.0534,10e-4 0.0801,0.002 28.28463,0.96436 56.46735,1.69068 84.55273,2.17773 9.34614,0.16205 18.68147,0.29932 28.00586,0.4082 0.0156,1.9e-4 0.0313,-1.8e-4 0.0469,0 9.32692,0.10883 18.64194,0.19062 27.94726,0.2461 9.332,0.0557 18.65246,0.0841 27.96289,0.0859 39.04712,0.008 77.89914,-0.47017 116.57422,-1.41601 19.48943,-0.47659 38.93093,-1.07986 58.32813,-1.80078 6.27082,-0.23307 12.54339,-0.46199 18.80468,-0.72071 9.14348,-0.37779 18.27712,-0.78225 27.40039,-1.21484 10e-4,-1.5e-4 0.003,1.5e-4 0.004,0 0.17873,-0.0232 0.36958,-0.0653 0.57031,-0.12305 0.009,-0.003 0.0179,-0.003 0.0274,-0.006 0,0 0.002,0 0.002,0 0.16761,-0.0496 0.34674,-0.12461 0.52734,-0.20118 0.0677,-0.0287 0.13381,-0.0537 0.20508,-0.0879 1.38838,-0.65663 3.09488,-2.13437 4.72461,-5.021483 2.22904,-3.9488 3.75289,-10.00096 3.36523,-16.48047 -0.38764,-6.47951 -2.60709,-11.78827 -4.96874,-14.70703 -2.06647,-2.55393 -3.48292,-3.1723 -4.83399,-3.12695 z m -5.05078,60.017573 c -141.763,6.52082 -285.9061,6.45222 -432.712895,0.0937 l 52.582035,382.95118 c 109.49434,32.92326 218.67744,31.18387 328.42969,-0.0899 l 51.70117,-382.95508 z m -219.45117,24.8125 c 90.63838,0 164.33008,73.6917 164.33008,164.33008 0,90.63838 -73.6917,164.33008 -164.33008,164.33008 -90.63838,0 -164.33008,-73.6917 -164.33008,-164.33008 0,-90.63838 73.6917,-164.33008 164.33008,-164.33008 z m 0,20 c -79.82958,0 -144.33008,64.5005 -144.33008,144.33008 0,79.82958 64.5005,144.33008 144.33008,144.33008 79.82958,0 144.33008,-64.5005 144.33008,-144.33008 0,-79.82958 -64.5005,-144.33008 -144.33008,-144.33008 z m -6.10156,6.94922 15.15234,0 0,32.32617 -15.15234,0 0,-32.32617 z m 89.20117,31.27735 -86.32227,128.45312 -1.5,-2.53906 -0.11914,0.18359 -69.38476,-79.27539 70.49023,46.46094 86.83594,-93.2832 z m -217.78711,97.30859 32.32422,0 0,15.15234 -32.32422,0 0,-15.15234 z m 240,0 32.32422,0 0,15.15234 -32.32422,0 0,-15.15234 z m -111.41406,111.41406 15.15234,0 0,32.32617 -15.15234,0 0,-32.32617 z"
           id="path3373"
           inkscape:connector-curvature="0" />
        <rect
           style="opacity:0;fill:#ffffff;fill-opacity:1;stroke:none;stroke-width:20;stroke-linecap:round;stroke-miterlimit:4;stroke-dasharray:none;stroke-opacity:1"
           id="rect3375"
           width="530"
           height="530"
           x="15.189239"
           y="28.826229"
           inkscape:export-xdpi="32.603775"
           inkscape:export-ydpi="32.603775" />
      </g>
    </g>
  </g>
</svg>
