<?xml version="1.0" encoding="UTF-8" standalone="no"?>
<!-- Created with Inkscape (http://www.inkscape.org/) -->

<svg
   xmlns:dc="http://purl.org/dc/elements/1.1/"
   xmlns:cc="http://creativecommons.org/ns#"
   xmlns:rdf="http://www.w3.org/1999/02/22-rdf-syntax-ns#"
   xmlns:svg="http://www.w3.org/2000/svg"
   xmlns="http://www.w3.org/2000/svg"
   xmlns:sodipodi="http://sodipodi.sourceforge.net/DTD/sodipodi-0.dtd"
   xmlns:inkscape="http://www.inkscape.org/namespaces/inkscape"
   width="210mm"
   height="297mm"
   viewBox="0 0 744.09448819 1052.3622047"
   id="svg2"
   version="1.1"
   inkscape:version="0.91 r13725"
   sodipodi:docname="drawing.svg">
  <defs
     id="defs4" />
  <sodipodi:namedview
     id="base"
     pagecolor="#ffffff"
     bordercolor="#666666"
     borderopacity="1.0"
     inkscape:pageopacity="0.0"
     inkscape:pageshadow="2"
     inkscape:zoom="0.7"
     inkscape:cx="391.42857"
     inkscape:cy="440.40716"
     inkscape:document-units="px"
     inkscape:current-layer="layer1"
     showgrid="false"
     inkscape:window-width="1440"
     inkscape:window-height="851"
     inkscape:window-x="0"
     inkscape:window-y="1"
     inkscape:window-maximized="1" />
  <metadata
     id="metadata7">
    <rdf:RDF>
      <cc:Work
         rdf:about="">
        <dc:format>image/svg+xml</dc:format>
        <dc:type
           rdf:resource="http://purl.org/dc/dcmitype/StillImage" />
      </cc:Work>
    </rdf:RDF>
  </metadata>
  <g
     inkscape:label="Layer 1"
     inkscape:groupmode="layer"
     id="layer1">
    <path
       style="opacity:1;fill:#000080;fill-opacity:1;stroke:none;stroke-width:20;stroke-miterlimit:4;stroke-dasharray:none;stroke-opacity:1"
       d="m 619.05664,352.50335 c -1.64048,0.99075 -3.38302,1.63835 -5.20508,1.87238 -146.81253,7.86401 -296.20148,7.74026 -448.49218,-0.009 -0.78573,-0.10362 -1.55505,-0.29259 -2.31055,-0.54345 l -10.81911,27.0127 65.96364,425.4136 c 115.49411,40.6348 230.98831,38.38114 346.48242,0 l 60.44784,-429.50124 -6.06698,-24.24519 z"
       id="path4192"
       inkscape:connector-curvature="0"
       sodipodi:nodetypes="cccccccccc" />
    <rect
       style="opacity:0;fill:#00ff00;fill-opacity:1;stroke:none;stroke-width:20;stroke-linecap:round;stroke-miterlimit:4;stroke-dasharray:none;stroke-opacity:1"
       id="rect4165"
       width="530"
       height="530"
       x="124.28571"
       y="323.79077"
       inkscape:export-xdpi="32.603775"
       inkscape:export-ydpi="32.603775" />
    <g
       id="g4207"
       style="fill:#ffffff">
      <path
         inkscape:connector-curvature="0"
         id="path4147"
         d="m 387.89844,443.56445 c -90.63838,0 -164.33008,73.6917 -164.33008,164.33008 0,90.63838 73.6917,164.33008 164.33008,164.33008 90.63838,0 164.33008,-73.6917 164.33008,-164.33008 0,-90.63838 -73.6917,-164.33008 -164.33008,-164.33008 z m 0,20 c 79.82958,0 144.33008,64.5005 144.33008,144.33008 0,79.82958 -64.5005,144.33008 -144.33008,144.33008 -79.82958,0 -144.33008,-64.5005 -144.33008,-144.33008 0,-79.82958 64.5005,-144.33008 144.33008,-144.33008 z"
         style="color:#000000;font-style:normal;font-variant:normal;font-weight:normal;font-stretch:normal;font-size:medium;line-height:normal;font-family:sans-serif;text-indent:0;text-align:start;text-decoration:none;text-decoration-line:none;text-decoration-style:solid;text-decoration-color:#000000;letter-spacing:normal;word-spacing:normal;text-transform:none;direction:ltr;block-progression:tb;writing-mode:lr-tb;baseline-shift:baseline;text-anchor:start;white-space:normal;clip-rule:nonzero;display:inline;overflow:visible;visibility:visible;opacity:1;isolation:auto;mix-blend-mode:normal;color-interpolation:sRGB;color-interpolation-filters:linearRGB;solid-color:#000000;solid-opacity:1;fill:#ffffff;fill-opacity:1;fill-rule:nonzero;stroke:none;stroke-width:20;stroke-linecap:round;stroke-linejoin:miter;stroke-miterlimit:4;stroke-dasharray:none;stroke-dashoffset:0;stroke-opacity:1;color-rendering:auto;image-rendering:auto;shape-rendering:auto;text-rendering:auto;enable-background:accumulate" />
      <path
         inkscape:connector-curvature="0"
         id="path4149"
         d="m 502.61248,575.57021 -120.77482,20.70426 9.20189,26.45543 z"
         style="fill:#ffffff;fill-rule:evenodd;stroke:none;stroke-width:20;stroke-linecap:butt;stroke-linejoin:miter;stroke-miterlimit:4;stroke-dasharray:none;stroke-opacity:1" />
      <path
         inkscape:transform-center-y="-42.082345"
         inkscape:transform-center-x="29.361927"
         style="fill:#ffffff;fill-rule:evenodd;stroke:none;stroke-width:20;stroke-linecap:butt;stroke-linejoin:miter;stroke-miterlimit:4;stroke-dasharray:none;stroke-opacity:1"
         d="m 299.04795,500.73166 90.35933,124.29082 19.92867,-19.70397 z"
         id="path4151"
         inkscape:connector-curvature="0" />
      <rect
         y="470.51431"
         x="381.79706"
         height="32.324883"
         width="15.152288"
         id="rect4153"
         style="opacity:1;fill:#ffffff;fill-opacity:1;stroke:none;stroke-width:20;stroke-linecap:round;stroke-miterlimit:4;stroke-dasharray:none;stroke-opacity:1" />
      <rect
         style="opacity:1;fill:#ffffff;fill-opacity:1;stroke:none;stroke-width:20;stroke-linecap:round;stroke-miterlimit:4;stroke-dasharray:none;stroke-opacity:1"
         id="rect4155"
         width="15.152288"
         height="32.324883"
         x="381.79706"
         y="710.51428" />
      <rect
         transform="matrix(0,-1,1,0,0,0)"
         style="opacity:1;fill:#ffffff;fill-opacity:1;stroke:none;stroke-width:20;stroke-linecap:round;stroke-miterlimit:4;stroke-dasharray:none;stroke-opacity:1"
         id="rect4157"
         width="15.152288"
         height="32.324883"
         x="-614.25287"
         y="253.21077" />
      <rect
         transform="matrix(0,-1,1,0,0,0)"
         y="493.21075"
         x="-614.25287"
         height="32.324883"
         width="15.152288"
         id="rect4159"
         style="opacity:1;fill:#ffffff;fill-opacity:1;stroke:none;stroke-width:20;stroke-linecap:round;stroke-miterlimit:4;stroke-dasharray:none;stroke-opacity:1" />
      <path
         inkscape:connector-curvature="0"
         id="path4197"
         d="m 167.11328,338.74609 c -9.32062,-0.0814 -17.19876,5.44881 -22.14844,12.5293 -4.94967,7.0805 -7.68555,16.03599 -7.95898,25.83399 -0.27344,9.79799 1.96239,18.96729 6.38867,26.45507 4.42628,7.48779 11.55436,13.72783 20.80274,14.81055 l 0.35351,0.041 0.35742,0.0176 c 152.58035,6.8919 302.27895,7.00419 449.41797,0.008 l 0.33008,-0.0156 0.32813,-0.0391 c 9.57447,-1.09169 16.85249,-7.68098 21.26953,-15.50586 4.41703,-7.82488 6.51971,-17.38239 5.91406,-27.50586 -0.60565,-10.12347 -3.80912,-19.20481 -9.38477,-26.0957 -5.57565,-6.8909 -14.51454,-11.73035 -24.02929,-10.25196 l 1.25976,-0.11328 c -144.36709,3.96671 -288.67643,3.74229 -432.98828,0.15625 l 0,-0.23633 -9.91211,-0.0879 z m -0.17773,20 c 6.3e-4,1e-5 0.001,0 0.002,0 0.16155,0.002 0.32328,0.0156 0.49414,0.043 l 0.66016,0.10547 0.66601,0.0176 c 147.21542,3.78244 294.46474,4.04259 441.80664,-0.006 l 0.63282,-0.0176 0.62695,-0.0976 c 1.53658,-0.23876 3.04849,0.15154 5.41016,3.07031 2.36166,2.91876 4.5811,8.22752 4.96874,14.70703 0.38765,6.47951 -1.13619,12.53167 -3.36523,16.48047 -2.20566,3.90738 -4.55411,5.24519 -6.06055,5.43945 -146.08798,6.92685 -294.75558,6.81806 -446.32812,-0.01 -1.44627,-0.19573 -3.67615,-1.43485 -5.83789,-5.0918 -2.19133,-3.70699 -3.78851,-9.43994 -3.61328,-15.71875 0.17522,-6.27882 2.09087,-11.69046 4.35937,-14.93555 2.26769,-3.24391 4.17442,-3.99803 5.57813,-3.98633 z"
         style="color:#000000;font-style:normal;font-variant:normal;font-weight:normal;font-stretch:normal;font-size:medium;line-height:normal;font-family:sans-serif;text-indent:0;text-align:start;text-decoration:none;text-decoration-line:none;text-decoration-style:solid;text-decoration-color:#000000;letter-spacing:normal;word-spacing:normal;text-transform:none;direction:ltr;block-progression:tb;writing-mode:lr-tb;baseline-shift:baseline;text-anchor:start;white-space:normal;clip-rule:nonzero;display:inline;overflow:visible;visibility:visible;opacity:1;isolation:auto;mix-blend-mode:normal;color-interpolation:sRGB;color-interpolation-filters:linearRGB;solid-color:#000000;solid-opacity:1;fill:#ffffff;fill-opacity:1;fill-rule:evenodd;stroke:none;stroke-width:20;stroke-linecap:round;stroke-linejoin:miter;stroke-miterlimit:4;stroke-dasharray:none;stroke-dashoffset:0;stroke-opacity:1;color-rendering:auto;image-rendering:auto;shape-rendering:auto;text-rendering:auto;enable-background:accumulate" />
      <path
         inkscape:connector-curvature="0"
         id="path4199"
         d="m 631.58594,388.72461 -17.25391,9.25195 c -0.6059,0.32484 -1.07584,0.44943 -1.52539,0.50977 -146.12827,6.92972 -294.83732,6.82083 -446.45312,-0.0117 -0.13135,-0.022 -0.25781,-0.041 -0.47657,-0.10547 l -14.83984,-4.375 58.11328,423.23633 6.0625,1.89258 c 117.40537,36.6683 235.16546,34.59952 352.29297,0.0469 l 6.21289,-1.83398 57.86719,-428.61133 z m -24.23242,30.00391 -51.70508,382.97851 c -109.75225,31.27372 -218.93535,33.01306 -328.42969,0.0898 L 174.63281,418.82031 c 146.80828,6.35828 290.9564,6.42964 432.72071,-0.0918 z"
         style="color:#000000;font-style:normal;font-variant:normal;font-weight:normal;font-stretch:normal;font-size:medium;line-height:normal;font-family:sans-serif;text-indent:0;text-align:start;text-decoration:none;text-decoration-line:none;text-decoration-style:solid;text-decoration-color:#000000;letter-spacing:normal;word-spacing:normal;text-transform:none;direction:ltr;block-progression:tb;writing-mode:lr-tb;baseline-shift:baseline;text-anchor:start;white-space:normal;clip-rule:nonzero;display:inline;overflow:visible;visibility:visible;opacity:1;isolation:auto;mix-blend-mode:normal;color-interpolation:sRGB;color-interpolation-filters:linearRGB;solid-color:#000000;solid-opacity:1;fill:#ffffff;fill-opacity:1;fill-rule:nonzero;stroke:none;stroke-width:20;stroke-linecap:butt;stroke-linejoin:miter;stroke-miterlimit:4;stroke-dasharray:none;stroke-dashoffset:0;stroke-opacity:1;color-rendering:auto;image-rendering:auto;shape-rendering:auto;text-rendering:auto;enable-background:accumulate" />
    </g>
  </g>
</svg>
